<svg id="Capa_1" enable-background="new 0 0 512 512" height="512" viewBox="0 0 512 512" width="512" xmlns="http://www.w3.org/2000/svg"><g><path d="m255.999 2.092s-133.769-.854-247.76 101.831c-9.05 8.153-10.899 21.645-4.278 31.869l26.766 41.331 7.545 1.766 206.707 318.017c7.076 10.926 16.537 9.794 23.612-1.132l204.502-316.885 8.177-1.765 26.767-41.333c6.621-10.224 4.773-23.716-4.278-31.869-113.991-102.684-247.76-101.83-247.76-101.83z" fill="#fe9738"/><path d="m508.035 135.792-236.969 365.918c-7.069 10.929-23.065 10.929-30.135 0l-2.487-3.839c6.006.227 12.105-2.539 15.8-8.287l238.032-370.974c4.469-6.956 5.088-15.418 2.26-22.725 3.085 2.601 6.161 5.284 9.226 8.039 9.051 8.153 10.898 21.641 4.273 31.868z" fill="#fe860a"/><path d="m255.999 77.408s-125.155-.799-225.271 99.716l24.812 38.314 3.931 1.111 185.508 284.296c7.076 10.926 16.537 5.855 23.612-5.071l178.44-276.501 9.427-3.835 24.811-38.313c-93.323-105.113-225.27-99.717-225.27-99.717z" fill="#fee45a"/><path d="m481.275 177.124-210.209 324.586c-7.069 10.929-23.065 10.929-30.135 0l-2.487-3.839c6.006.227 12.105-2.539 15.8-8.287l211.106-329.013c5.409 5.191 10.724 10.701 15.925 16.553z" fill="#fedf30"/><path d="m255.999 126.704s-111.37-.711-200.459 88.734l185.39 286.277c7.076 10.926 23.063 10.926 30.139 0l185.39-286.277c-80.623-94.983-200.46-88.734-200.46-88.734z" fill="#fdb97e"/><path d="m456.455 215.442-185.389 286.268c-7.069 10.929-23.065 10.929-30.135 0l-2.487-3.839c6.006.227 12.105-2.539 15.8-8.287l186.617-290.849c5.326 5.19 10.538 10.753 15.594 16.707z" fill="#fea95c"/><path d="m168.867 317.652c0 16.687-8.308 31.435-21.022 40.32l-53.447-82.53c7.389-4.437 16.037-6.986 25.284-6.986 27.162 0 49.185 22.023 49.185 49.196z" fill="#e94444"/><path d="m168.867 317.652c0 16.687-8.308 31.435-21.022 40.32l-14.221-21.971c5.439-7.915 8.628-17.503 8.628-27.833 0-16.275-7.905-30.702-20.072-39.65 26.006 1.301 46.687 22.797 46.687 49.134z" fill="#d83131"/><path d="m362.522 360.49-53.303 82.313c-15.439-8.308-25.924-24.603-25.924-43.354 0-27.162 22.023-49.185 49.196-49.185 11.301-.001 21.724 3.818 30.031 10.226z" fill="#e94444"/><path d="m362.522 360.49-53.303 82.313c-6.316-3.406-11.796-8.132-16.079-13.829l49.784-77.596c7.256 1.568 13.922 4.737 19.598 9.112z" fill="#d83131"/><circle cx="283.298" cy="219.272" fill="#e94444" r="49.188"/><path d="m332.491 219.271c0 27.162-22.023 49.185-49.196 49.185-20.103 0-37.389-12.064-45.016-29.35 7.967 5.563 17.647 8.813 28.091 8.813 27.162 0 49.185-22.023 49.185-49.185 0-7.059-1.486-13.777-4.169-19.845 12.756 8.885 21.105 23.664 21.105 40.382z" fill="#d83131"/><g><path d="m370.34 287.603c-2.475 0-4.897-1.224-6.328-3.464l-7.435-11.641c-2.229-3.491-1.207-8.128 2.284-10.358 3.491-2.227 8.129-1.206 10.358 2.284l7.435 11.641c2.229 3.491 1.207 8.128-2.284 10.358-1.25.798-2.648 1.18-4.03 1.18z" fill="#e57917"/></g><g><path d="m386.114 225.899c-1.358 0-2.732-.368-3.969-1.142-3.512-2.196-4.579-6.823-2.383-10.336l7.323-11.712c2.196-3.512 6.823-4.58 10.335-2.383 3.512 2.196 4.579 6.823 2.383 10.336l-7.323 11.712c-1.422 2.276-3.866 3.525-6.366 3.525z" fill="#e57917"/></g><g><path d="m142.249 214.187c-1.933 0-3.864-.742-5.332-2.225-2.913-2.945-2.888-7.693.057-10.606l9.819-9.715c2.944-2.913 7.692-2.89 10.606.056 2.913 2.945 2.888 7.693-.057 10.606l-9.819 9.715c-1.461 1.446-3.368 2.169-5.274 2.169z" fill="#e57917"/></g><g><path d="m204.487 246.056c-2.993 0-5.82-1.804-6.982-4.758l-5.055-12.854c-1.516-3.854.38-8.208 4.235-9.724 3.854-1.519 8.208.38 9.725 4.235l5.055 12.854c1.516 3.854-.38 8.208-4.235 9.724-.901.355-1.83.523-2.743.523z" fill="#e57917"/></g><g><g><path d="m244.974 325.148c-1.62 0-3.25-.521-4.624-1.599l-10.869-8.523c-3.259-2.556-3.829-7.271-1.273-10.529 2.557-3.261 7.271-3.83 10.53-1.273l10.869 8.523c3.259 2.556 3.829 7.271 1.273 10.529-1.479 1.887-3.682 2.872-5.906 2.872z" fill="#e57917"/></g></g><g><g><path d="m308.225 322.015c-1.645 0-3.301-.538-4.685-1.647-3.232-2.59-3.753-7.31-1.163-10.542l8.637-10.779c2.59-3.232 7.31-3.755 10.543-1.163 3.232 2.59 3.753 7.31 1.163 10.542l-8.637 10.779c-1.482 1.848-3.66 2.81-5.858 2.81z" fill="#e57917"/></g></g><g><g><path d="m250.408 431.413c-1.62 0-3.25-.521-4.624-1.599l-10.869-8.524c-3.259-2.557-3.829-7.271-1.273-10.53 2.557-3.259 7.271-3.829 10.53-1.272l10.869 8.524c3.259 2.557 3.829 7.271 1.273 10.53-1.479 1.886-3.681 2.871-5.906 2.871z" fill="#e57917"/></g></g><g><g><path d="m208.794 374.337c-1.587 0-3.188-.501-4.546-1.539-3.292-2.514-3.923-7.221-1.409-10.513l8.383-10.978c2.514-3.291 7.221-3.924 10.513-1.409 3.292 2.514 3.923 7.221 1.409 10.513l-8.383 10.978c-1.476 1.932-3.709 2.948-5.967 2.948z" fill="#e57917"/></g></g></g></svg>