<svg height="512" viewBox="0 0 512 512" width="512" xmlns="http://www.w3.org/2000/svg"><g id="Flat"><path d="m488 366.18v129.82h-256v-104l-16 40-56-32 23.05-51.85a47.967 47.967 0 0 1 30.07-26.48l58.88-17.67 16-8v-56h80v56l16 8 66.79 15.41a48.006 48.006 0 0 1 37.21 46.77z" fill="#fdc8a2"/><path d="m368 240v29.29a80.052 80.052 0 0 1 -80 0v-29.29z" fill="#fdbf92"/><path d="m232 496v-104l-16 40-56-32 23.046-51.854a48 48 0 0 1 30.07-26.481l58.884-17.665 16-8 40 64 40-64 16 8 66.793 15.414a48 48 0 0 1 37.207 46.771v49.815h-64v80" fill="#d65246"/><path d="m288 296-16 8v56l32-16 24 16z" fill="#df6257"/><path d="m368 296 16 8v56l-32-16-24 16z" fill="#df6257"/><path d="m160 400-19.086 41.989a32.544 32.544 0 0 0 29.627 46.011 32.543 32.543 0 0 0 29.912-19.724l15.547-36.276z" fill="#fdbf92"/><path d="m201.3 449.471-25.3-145.471h-104a32 32 0 0 0 32 32h32v119.107a32.893 32.893 0 0 0 32.893 32.893 32.892 32.892 0 0 0 32.407-38.529z" fill="#fdc8a2"/><path d="m248 104v80a80 80 0 0 0 80 80 80 80 0 0 0 80-80v-80z" fill="#fdc8a2"/><path d="m248 96v22a26 26 0 0 0 26 26 72.706 72.706 0 0 0 27-5.2 72.7 72.7 0 0 1 54 0 72.706 72.706 0 0 0 27 5.2 26 26 0 0 0 26-26v-22z" fill="#fdbf92"/><path d="m248 128v-24h32z" fill="#7a432a"/><path d="m408 128v-24h-32z" fill="#7a432a"/><path d="m368 168a16 16 0 1 1 16-16 16.019 16.019 0 0 1 -16 16z" fill="#91563a"/><path d="m288 168a16 16 0 1 1 16-16 16.019 16.019 0 0 1 -16 16z" fill="#91563a"/><path d="m296 24h64a48 48 0 0 1 48 48v32a0 0 0 0 1 0 0h-160a0 0 0 0 1 0 0v-32a48 48 0 0 1 48-48z" fill="#c7483c"/><path d="m382 128a72.706 72.706 0 0 1 -27-5.2 72.7 72.7 0 0 0 -54 0 72.706 72.706 0 0 1 -27 5.2 26 26 0 0 1 -26-26v-6l17.642-5.881a197.2 197.2 0 0 1 62.358-10.119 197.2 197.2 0 0 1 62.358 10.119l17.642 5.881v6a26 26 0 0 1 -26 26z" fill="#d65246"/><path d="m318.6 216h-6.6v-16h6.6a66.019 66.019 0 0 0 29.377-6.935l.441-.22 7.156 14.31-.44.22a82.1 82.1 0 0 1 -36.534 8.625z" fill="#fcb079"/><path d="m240 128h8a0 0 0 0 1 0 0v48a0 0 0 0 1 0 0h-8a24 24 0 0 1 -24-24 24 24 0 0 1 24-24z" fill="#fdb683"/><path d="m432 128h8a0 0 0 0 1 0 0v48a0 0 0 0 1 0 0h-8a24 24 0 0 1 -24-24 24 24 0 0 1 24-24z" fill="#fdb683" transform="matrix(-1 0 0 -1 848 304)"/><path d="m320 352h16v72h-16z" fill="#c7483c"/><path d="m288 376h16v16h-16z" fill="#df6257"/><path d="m416 384h16v32h-16z" fill="#c7483c"/><path d="m352 432h48v16h-48z" fill="#c7483c"/><path d="m24 208h224v48h-224z" fill="#ffb431"/><path d="m152 208h96v48h-96z" fill="#f99e0c"/><path d="m88 232a24 24 0 0 1 -24-24h48a24 24 0 0 1 -24 24z" fill="#f99e0c"/><path d="m24 256h224v48h-224z" fill="#ffb431"/><g fill="#f99e0c"><path d="m152 256h96v48h-96z"/><path d="m88 280a24 24 0 0 1 -24-24h48a24 24 0 0 1 -24 24z"/><path d="m24 248h128v16h-128z"/></g><path d="m152 248h96v16h-96z" fill="#f4970c"/></g></svg>